<?xml version="1.0" encoding="UTF-8" standalone="no" ?>
<!DOCTYPE svg PUBLIC "-//W3C//DTD SVG 1.1//EN" "http://www.w3.org/Graphics/SVG/1.1/DTD/svg11.dtd">
<svg xmlns="http://www.w3.org/2000/svg" xmlns:xlink="http://www.w3.org/1999/xlink" version="1.1" width="1080" height="1080" viewBox="0 0 1080 1080" xml:space="preserve">
<desc>Created with Fabric.js 5.2.4</desc>
<defs>
</defs>
<g transform="matrix(1 0 0 1 540 540)" id="a7f00746-07d9-4bb0-81b1-5e7fda3282ea"  >
</g>
<g transform="matrix(1 0 0 1 540 540)" id="4bf869c8-70a1-4183-adbd-22b6271a0836"  >
<rect style="stroke: none; stroke-width: 1; stroke-dasharray: none; stroke-linecap: butt; stroke-dashoffset: 0; stroke-linejoin: miter; stroke-miterlimit: 4; fill: rgb(255,255,255); fill-rule: nonzero; opacity: 1; visibility: hidden;" vector-effect="non-scaling-stroke"  x="-540" y="-540" rx="0" ry="0" width="1080" height="1080" />
</g>
<g transform="matrix(0 0 0 0 0 0)"  >
<g style=""   >
</g>
</g>
<g transform="matrix(42.38 0 0 42.38 540 540)"  >
<path style="stroke: rgb(255,255,255); stroke-width: 1; stroke-dasharray: none; stroke-linecap: butt; stroke-dashoffset: 0; stroke-linejoin: miter; stroke-miterlimit: 4; fill: rgb(255,255,255); fill-rule: nonzero; opacity: 1;"  transform=" translate(-12, -12)" d="M 11.3 0 C 5.325766826194233 0.3401644667572044 0.5182009284258129 5.035469880541508 0.036999999999999034 11.000000000000014 C -0.011884211442941654 11.665770541868515 -0.011884211442941828 12.334229458131484 0.037 13 C 0.519741964464182 18.97418716114082 5.3422758510519275 23.672847280934015 11.327000000000002 24 L 12.673 24 C 18.777345603340812 23.631021569673525 23.63635314845861 18.746213984493153 23.973 12.639999999999997 C 24.007845475162178 12.073869012953605 24.007845475162178 11.506130987046399 23.973 10.940000000000003 C 23.43404867219008 4.9991365286382905 18.629163861133996 0.34691599293127595 12.673999999999989 0 z M 15 6.51 L 17.990000000000002 8.25 C 17.990000000000002 8.25 11.926000000000002 11.49 11.906000000000002 11.49 C 11.886000000000003 11.49 5.812 8.27 5.8 8.26 L 8.794 6.49 L 11.786000000000001 4.73 z M 8.524000000000001 11.636 L 11 13 L 11 18.92 L 8.472999999999999 17.520000000000003 L 6.012999999999999 16.090000000000003 L 6.012999999999999 10.330000000000004 z M 17.985 13.207999999999998 L 17.985 16.131999999999998 L 15.5 17.574 L 13 19.017 L 13 12.992999999999999 L 15.489 11.647999999999998 L 17.989 10.292999999999997 z" stroke-linecap="round" />
</g>
</svg>