<?xml version="1.0" encoding="UTF-8" standalone="no" ?>
<!DOCTYPE svg PUBLIC "-//W3C//DTD SVG 1.1//EN" "http://www.w3.org/Graphics/SVG/1.1/DTD/svg11.dtd">
<svg xmlns="http://www.w3.org/2000/svg" xmlns:xlink="http://www.w3.org/1999/xlink" version="1.1" width="1080" height="1080" viewBox="0 0 1080 1080" xml:space="preserve">
<desc>Created with Fabric.js 5.2.4</desc>
<defs>
</defs>
<rect x="0" y="0" width="100%" height="100%" fill="transparent"></rect>
<g transform="matrix(1 0 0 1 540 540)" id="bc423a16-51bd-42ff-9013-99323d3964b6"  >
</g>
<g transform="matrix(1 0 0 1 540 540)" id="d528001e-b479-48d8-892f-a38f08c8d9d3"  >
<rect style="stroke: none; stroke-width: 1; stroke-dasharray: none; stroke-linecap: butt; stroke-dashoffset: 0; stroke-linejoin: miter; stroke-miterlimit: 4; fill: rgb(255,255,255); fill-rule: nonzero; opacity: 1; visibility: hidden;" vector-effect="non-scaling-stroke"  x="-540" y="-540" rx="0" ry="0" width="1080" height="1080" />
</g>
<g transform="matrix(44.25 0 0 44.25 540 540)" id="20024970-0645-49df-b203-82bdaa0051a7"  >
<path style="stroke: rgb(255,255,255); stroke-width: 0; stroke-dasharray: none; stroke-linecap: butt; stroke-dashoffset: 0; stroke-linejoin: miter; stroke-miterlimit: 4; fill: rgb(255,255,255); fill-rule: nonzero; opacity: 1;" vector-effect="non-scaling-stroke"  transform=" translate(-12, -12)" d="M 11.944 0 C 5.338462836566539 0.03082617536903694 -0.00007192813322554059 5.394390908824926 0 12.000000000000002 C 0 18.627416997969522 5.372583002030479 24 12 24 C 18.627416997969522 24 24 18.627416997969522 24 12 C 24 5.372583002030479 18.627416997969522 0 12 0 C 11.981333358740809 -0.00004355561483965807 11.962666641259183 -0.00004355561483790515 11.943999999999992 1.7763568394002505e-15 z M 16.906 7.224 C 17.006 7.222 17.227 7.247 17.371 7.364 C 17.46668858262482 7.4470962859599545 17.527711183773263 7.563074913873668 17.541999999999998 7.689 C 17.557999999999996 7.782 17.578 7.995 17.561999999999998 8.161 C 17.381999999999998 10.059 16.599999999999998 14.663 16.201999999999998 16.788 C 16.034 17.688 15.702999999999998 17.989 15.381999999999998 18.018 C 14.685999999999998 18.083000000000002 14.156999999999998 17.558 13.481999999999998 17.116 C 12.425999999999998 16.423 11.828999999999997 15.991999999999999 10.803999999999998 15.315999999999999 C 9.618999999999998 14.536 10.386999999999999 14.105999999999998 11.061999999999998 13.405999999999999 C 11.238999999999997 13.222 14.308999999999997 10.428999999999998 14.368999999999998 10.175999999999998 C 14.375999999999998 10.143999999999998 14.382999999999997 10.025999999999998 14.312999999999999 9.963999999999999 C 14.243 9.902 14.139 9.922999999999998 14.063999999999998 9.94 C 13.957999999999998 9.963999999999999 12.270999999999999 11.08 9.002999999999998 13.285 C 8.522999999999998 13.615 8.089999999999998 13.775 7.700999999999999 13.765 C 7.272999999999999 13.757000000000001 6.448999999999999 13.524000000000001 5.8359999999999985 13.325000000000001 C 5.083999999999999 13.080000000000002 4.486999999999998 12.951 4.538999999999999 12.536000000000001 C 4.565999999999999 12.320000000000002 4.863999999999999 12.099000000000002 5.431999999999999 11.873000000000001 C 8.93 10.349 11.261999999999999 9.344000000000001 12.43 8.859000000000002 C 15.762 7.473000000000002 16.455 7.232000000000002 16.906 7.224000000000002 z" stroke-linecap="round" />
</g>
</svg>